HIERARCHY
ROOT RootJoint
{
    OFFSET   0.000000   0.000000   0.000000
    CHANNELS 6 Xposition Yposition Zposition Xrotation Yrotation Zrotation
    JOINT pelvis_lowerback
    {
        OFFSET   0.000000   0.093605   0.000000
        CHANNELS 3 Xrotation Yrotation Zrotation
        JOINT lowerback_torso
        {
            OFFSET   0.000000   0.100000   0.000000
            CHANNELS 3 Xrotation Yrotation Zrotation
            JOINT torso_head
            {
                OFFSET   0.000000   0.282350   0.000000
                CHANNELS 3 Xrotation Yrotation Zrotation
                End Site
                {
                    OFFSET   0.000000   0.192650   0.000000
                }
            }
            JOINT rTorso_Clavicle
            {
                OFFSET  -0.001000   0.157500   0.000000
                CHANNELS 3 Xrotation Yrotation Zrotation
                JOINT rShoulder
                {
                    OFFSET  -0.117647   0.000000   0.000000
                    CHANNELS 3 Xrotation Yrotation Zrotation
                    JOINT rElbow
                    {
                        OFFSET  -0.245000   0.000000   0.000000
                        CHANNELS 3 Xrotation Yrotation Zrotation
                        JOINT rWrist
                        {
                            OFFSET  -0.240000   0.000000   0.000000
                            CHANNELS 3 Xrotation Yrotation Zrotation
                            End Site
                            {
                                OFFSET  -0.116353  -0.002500   0.000000
                            }
                        }
                    }
                }
            }
            JOINT lTorso_Clavicle
            {
                OFFSET   0.001000   0.157500   0.000000
                CHANNELS 3 Xrotation Yrotation Zrotation
                JOINT lShoulder
                {
                    OFFSET   0.117647   0.000000   0.000000
                    CHANNELS 3 Xrotation Yrotation Zrotation
                    JOINT lElbow
                    {
                        OFFSET   0.245000   0.000000   0.000000
                        CHANNELS 3 Xrotation Yrotation Zrotation
                        JOINT lWrist
                        {
                            OFFSET   0.240000   0.000000   0.000000
                            CHANNELS 3 Xrotation Yrotation Zrotation
                            End Site
                            {
                                OFFSET   0.116353  -0.002500   0.000000
                            }
                        }
                    }
                }
            }
        }
    }
    JOINT rHip
    {
        OFFSET  -0.100000  -0.051395   0.000000
        CHANNELS 3 Xrotation Yrotation Zrotation
        JOINT rKnee
        {
            OFFSET   0.000000  -0.410000   0.000000
            CHANNELS 3 Xrotation Yrotation Zrotation
            JOINT rAnkle
            {
                OFFSET   0.000000  -0.390000   0.000000
                CHANNELS 3 Xrotation Yrotation Zrotation
                JOINT rToeJoint
                {
                    OFFSET   0.000000  -0.050000   0.130000
                    CHANNELS 3 Xrotation Yrotation Zrotation
                    End Site
                    {
                        OFFSET  -0.010000   0.002000   0.060000
                    }
                }
            }
        }
    }
    JOINT lHip
    {
        OFFSET   0.100000  -0.051395   0.000000
        CHANNELS 3 Xrotation Yrotation Zrotation
        JOINT lKnee
        {
            OFFSET   0.000000  -0.410000   0.000000
            CHANNELS 3 Xrotation Yrotation Zrotation
            JOINT lAnkle
            {
                OFFSET   0.000000  -0.390000   0.000000
                CHANNELS 3 Xrotation Yrotation Zrotation
                JOINT lToeJoint
                {
                    OFFSET   0.000000  -0.050000   0.130000
                    CHANNELS 3 Xrotation Yrotation Zrotation
                    End Site
                    {
                        OFFSET   0.010000   0.002000   0.060000
                    }
                }
            }
        }
    }
}
MOTION
Frames: 10
Frame Time:   0.008333
 -2.548508   0.906584   4.089889  -9.501689 -52.370143  -1.906469   8.991915  -1.513033   1.897695  -1.261237  -3.720608  -4.802553   2.459826  -1.829997   0.462031 -11.592305   7.896948 -25.594100 -40.973842  15.851415  -2.362213   0.107433  49.801855  -0.031002   2.794470   2.040775 -11.830586  -1.194258  -4.455382   4.305179   0.069215  -3.298361 -24.225630  -0.093495 -45.958185  -0.041747   2.946325  -5.582937   5.659208   0.254511  10.268419  -1.631129  28.502944   0.003030   0.003521 -17.867864  21.085906   1.361685  -4.714971   0.002948   0.008994 -22.594497  -7.278498   2.224667  27.557851   0.024792   0.056239  -6.588419   2.957995  -6.527049  -2.006663   0.000226   0.002622
 -2.553483   0.907918   4.093378  -9.251888 -52.748185  -1.717059   8.590955  -1.452991   1.976889  -1.269622  -3.564836  -5.139155   2.491109  -2.201793   0.609941 -11.826027   7.815761 -26.820536 -41.680441  16.135517  -3.164853   0.114416  48.736549  -0.033273   2.857892   2.169747 -11.627396  -0.869074  -3.488794   4.300892   1.323746  -2.762555 -25.445813  -0.092458 -44.992880  -0.040830   3.007569  -5.732833   5.453871   0.614488  10.295617  -1.644748  28.081451   0.003214   0.003783 -17.292592  20.964975   1.181044  -5.681325   0.003458   0.011126 -21.816095  -7.495184   2.354600  25.681034   0.020408   0.055476  -6.001582   2.624171  -6.525087  -2.104172   0.000196   0.002936
 -2.558529   0.908875   4.097048  -8.943899 -53.171758  -1.419356   8.157688  -1.369011   2.005442  -1.305739  -3.377551  -5.482909   2.532120  -2.559528   0.761854 -12.099633   7.719710 -28.055699 -42.356749  16.408021  -3.977455   0.119136  47.714831  -0.034840   2.894829   2.155767 -11.462736  -0.525814  -2.474708   4.303971   2.555506  -2.208412 -26.606248  -0.089684 -44.055304  -0.038778   3.055793  -5.740044   5.133758   1.012451  10.321269  -1.736240  27.651186   0.003438   0.004169 -16.441814  20.839181   0.979784  -8.716199   0.008215   0.023073 -21.087848  -7.690630   2.416570  23.921777   0.016544   0.054952  -5.451462   2.310347  -6.520486  -2.172782   0.000159   0.002953
 -2.563647   0.910000   4.100747  -8.648088 -53.546678  -1.210945   7.743591  -1.278241   2.096521  -1.357281  -3.181802  -5.792968   2.578130  -2.894845   0.913473 -12.399476   7.608515 -29.220467 -43.000125  16.665741  -4.769120   0.120443  46.763398  -0.035811   2.930601   2.127232 -11.396118  -0.189231  -1.472704   4.263693   3.736395  -1.673824 -27.718693  -0.085834 -43.160829  -0.035725   3.092472  -5.633212   4.798627   1.357086  10.357265  -1.741290  27.262874   0.003427   0.004212 -15.996769  20.734992   0.799700  -9.246260   0.006754   0.020524 -20.370344  -7.882412   2.530886  22.281518   0.012741   0.052773  -4.936627   2.017006  -6.512270  -2.225761   0.000115   0.002783
 -2.568812   0.911126   4.104495  -8.349921 -53.883903  -1.001053   7.325975  -1.175050   2.163475  -1.425060  -2.977394  -6.085983   2.626188  -3.207850   1.058976 -12.703988   7.495937 -30.319547 -43.605388  16.907538  -5.524084   0.119249  45.871888  -0.036347   2.961534   2.078774 -11.379704   0.133918  -0.500898   4.221390   4.860487  -1.170782 -28.769808  -0.080888 -42.315701  -0.031905   3.122046  -5.467137   4.457406   1.695844  10.366782  -1.744974  26.894723   0.003363   0.004175 -15.499297  20.619254   0.644533  -9.940359   0.005916   0.019161 -19.688762  -8.055810   2.618649  20.759926   0.009211   0.049723  -4.455971   1.743459  -6.501658  -2.275109   0.000068   0.002587
 -2.573988   0.912182   4.108273  -8.050134 -54.168058  -0.788708   6.907662  -1.065522   2.211344  -1.510155  -2.769900  -6.366953   2.672662  -3.499947   1.194779 -13.003918   7.389524 -31.355896 -44.172614  17.139622  -6.239147   0.116103  45.039009  -0.036530   2.989712   2.022739 -11.394276   0.438504   0.428582   4.185346   5.923332  -0.704481 -29.756020  -0.075186 -41.521873  -0.027670   3.148157  -5.275741   4.131451   2.033642  10.373298  -1.746781  26.545358   0.003213   0.003973 -14.987090  20.510719   0.495658 -10.726595   0.005421   0.018057 -19.052153  -8.214629   2.678996  19.348898   0.006065   0.045941  -4.007191   1.487928  -6.489297  -2.321174   0.000024   0.002373
 -2.579148   0.913131   4.112069  -7.752942 -54.391635  -0.580243   6.492268  -0.952974   2.245151  -1.609398  -2.563321  -6.635178   2.716161  -3.772431   1.320795 -13.293644   7.293045 -32.332720 -44.702826  17.365524  -6.913360   0.111480  44.262863  -0.036396   3.017086   1.971083 -11.430530   0.722686   1.309495   4.158349   6.923990  -0.276496 -30.678188  -0.069102 -40.779008  -0.023345   3.172651  -5.079088   3.830933   2.371143  10.379016  -1.742475  26.217922   0.002988   0.003620 -14.480946  20.410565   0.355653 -11.565963   0.005164   0.016880 -18.461357  -8.360758   2.717446  18.038014   0.003362   0.041633  -3.588212   1.249262  -6.475596  -2.364045  -0.000017   0.002146
 -2.584390   0.914117   4.116058  -7.583160 -54.679095  -0.498822   6.127210  -0.799111   2.315079  -1.656994  -2.370491  -6.900107   2.744010  -4.161271   1.499073 -13.538542   7.108631 -33.408253 -45.391493  17.548124  -7.458516   0.108198  43.453506  -0.036375   3.021962   2.025235 -11.380383   1.031312   2.255136   4.267808   8.028068   0.111637 -31.768073  -0.065688 -39.989384  -0.021030   3.197838  -5.093921   3.654834   2.764417  10.408585  -1.715783  25.920638   0.002818   0.003399 -13.903355  20.218074   0.266078 -12.590445   0.005636   0.017821 -17.758541  -8.462445   2.778830  16.775084   0.001024   0.038159  -3.007786   0.897991  -6.354032  -2.445836  -0.000023   0.002266
 -2.589939   0.915227   4.119908  -7.411105 -54.986862  -0.401244   5.692759  -0.656611   2.214003  -1.802817  -2.179556  -7.390595   2.850743  -4.925122   1.750552 -13.619974   6.988468 -33.307645 -45.950307  17.501040  -7.935191   0.097351  42.821318  -0.034649   3.135792   2.602235 -12.038734   1.342097   3.229295   4.492997   9.098321   0.534630 -32.737066  -0.062600 -39.234359  -0.017665   3.221760  -5.018060   3.535767   3.156576  10.435271  -1.688874  25.619193   0.002753   0.003266 -13.223963  20.025709   0.163348 -13.776505   0.006484   0.019567 -17.053748  -8.552119   2.844337  15.603761  -0.000590   0.035072  -2.462297   0.569378  -6.237444  -2.499247  -0.000022   0.002163
 -2.595311   0.916156   4.123916  -7.267305 -55.266445  -0.367417   5.264930  -0.505361   2.121107  -1.934998  -1.976292  -7.757988   2.902754  -5.584838   1.882733 -13.648058   6.848753 -33.295273 -46.452197  17.359585  -8.254030   0.087788  42.136089  -0.032988   3.177046   2.836666 -12.351514   1.642133   4.163896   4.626039  10.118481   0.920476 -33.686503  -0.059494 -38.513449  -0.014589   3.236128  -4.880518   3.367723   3.546483  10.451992  -1.636140  25.348048   0.002597   0.003094 -12.569793  19.859065   0.075569 -14.980823   0.007070   0.020701 -16.384757  -8.640673   2.908899  14.540788  -0.002070   0.031835  -1.952478   0.264138  -6.124830  -2.554780  -0.000040   0.002064
